<svg width="16" height="16" viewBox="0 0 16 16" fill="none" xmlns="http://www.w3.org/2000/svg">
<path d="M8.16683 1.33334C8.90321 1.33334 9.50016 1.9303 9.50016 2.66668C9.50016 3.1599 9.23235 3.59058 8.83421 3.82122L8.8335 5.33334H12.5002C13.2365 5.33334 13.8335 5.9303 13.8335 6.66668V13.3333C13.8335 14.0697 13.2365 14.6667 12.5002 14.6667H3.8335C3.09712 14.6667 2.50016 14.0697 2.50016 13.3333V6.66668C2.50016 5.9303 3.09712 5.33334 3.8335 5.33334H7.50016L7.50011 3.82161C7.10161 3.59106 6.8335 3.16018 6.8335 2.66668C6.8335 1.9303 7.43045 1.33334 8.16683 1.33334ZM12.5002 6.66668H3.8335V13.3333H12.5002V6.66668ZM1.50016 8.00001C1.86835 8.00001 2.16683 8.29849 2.16683 8.66668V11.3333C2.16683 11.7015 1.86835 12 1.50016 12C1.13197 12 0.833496 11.7015 0.833496 11.3333V8.66668C0.833496 8.29849 1.13197 8.00001 1.50016 8.00001ZM14.8335 8.00001C15.2017 8.00001 15.5002 8.29849 15.5002 8.66668V11.3333C15.5002 11.7015 15.2017 12 14.8335 12C14.4653 12 14.1668 11.7015 14.1668 11.3333V8.66668C14.1668 8.29849 14.4653 8.00001 14.8335 8.00001ZM9.50016 10.6667L9.57791 10.6712C9.90948 10.7097 10.1668 10.9914 10.1668 11.3333C10.1668 11.7015 9.86836 12 9.50016 12H6.8335L6.75575 11.9955C6.42418 11.957 6.16683 11.6752 6.16683 11.3333C6.16683 10.9651 6.4653 10.6667 6.8335 10.6667H9.50016ZM5.8335 8.00001C6.20169 8.00001 6.50016 8.29849 6.50016 8.66668C6.50016 9.03487 6.20169 9.33334 5.8335 9.33334C5.46531 9.33334 5.16683 9.03487 5.16683 8.66668C5.16683 8.29849 5.46531 8.00001 5.8335 8.00001ZM10.5002 8.00001C10.8684 8.00001 11.1668 8.29849 11.1668 8.66668C11.1668 9.03487 10.8684 9.33334 10.5002 9.33334C10.132 9.33334 9.8335 9.03487 9.8335 8.66668C9.8335 8.29849 10.132 8.00001 10.5002 8.00001Z" fill="url(#paint0_linear_9255_6921)"/>
<defs>
<linearGradient id="paint0_linear_9255_6921" x1="8.16683" y1="1.33334" x2="8.16683" y2="14.6667" gradientUnits="userSpaceOnUse">
<stop stop-color="#00C261"/>
<stop offset="1" stop-color="#3370FF"/>
</linearGradient>
</defs>
</svg>
