<svg width="16" height="17" viewBox="0 0 16 17" fill="none" xmlns="http://www.w3.org/2000/svg">
<path d="M6.75447 16.0647C8.31921 16.0647 9.75356 15.5418 10.901 14.6269C10.7185 14.2348 10.4838 13.8426 10.1708 13.5289C9.36237 14.2086 8.34529 14.6269 7.22389 14.7314V13.8688C8.0845 13.7642 8.89295 13.4505 9.54492 12.9277C8.89295 12.431 8.11058 12.0911 7.22389 11.9866C7.06742 11.9604 6.91094 11.9604 6.72839 11.9604C6.57191 11.9604 6.38936 11.9604 6.23289 11.9866C5.37228 12.0911 4.56383 12.4048 3.91185 12.9277C4.56383 13.4244 5.3462 13.7642 6.23289 13.8688V14.7314C5.11149 14.6269 4.09441 14.2086 3.28596 13.5289C2.99909 13.8688 2.76438 14.2348 2.55574 14.6269C3.7293 15.5418 5.18973 16.0647 6.75447 16.0647ZM13.6133 4.66684L13.0917 5.03282L11.7616 4.82369L12.2311 4.37928L13.6133 4.66684ZM11.3965 2.41864L11.0314 2.94148L11.2401 4.27471L11.6834 3.80416L11.3965 2.41864ZM10.6142 3.5166L10.1969 4.06558L10.2491 5.29424L10.6402 4.84983L10.7185 4.7714L10.6142 3.5166ZM12.5179 5.42495L11.9703 5.84322L10.7446 5.79094L11.1879 5.39881L11.2661 5.32038L12.5179 5.42495ZM13.4307 2.60163L13.5089 2.62777L14.6825 2.94148C14.7346 2.94148 14.8129 2.96762 14.865 2.99376C15.1258 3.12447 15.2562 3.41203 15.2041 3.67345L15.517 3.75187C15.6735 3.77801 15.8039 3.88258 15.8821 4.01329C16.0908 4.30085 16.0125 4.69298 15.7257 4.90211L12.9613 6.73204C13.2742 7.5163 13.4568 8.40512 13.4568 9.29394C13.4568 10.8625 12.9352 12.3003 12.0224 13.4505C11.6312 13.2675 11.2401 13.0322 10.9271 12.7185C11.6052 11.9081 12.0224 10.8886 12.1267 9.7645H11.2661C11.1618 10.6272 10.8489 11.4376 10.3273 12.0911C9.83179 11.4376 9.49277 10.6533 9.38845 9.7645C9.36237 9.60765 9.36237 9.4508 9.36237 9.2678C9.36237 9.11095 9.36237 8.92796 9.38845 8.77111C9.41453 8.53583 9.44061 8.3267 9.51884 8.11756H9.12766L8.86687 8.37898L8.4496 8.79725C8.4496 8.9541 8.42353 9.11095 8.42353 9.2678C8.42353 9.99977 8.58 10.7317 8.86687 11.4114C8.4496 11.2284 7.87587 11.0716 7.38036 11.0193H7.35429H7.32821H7.30213H7.27605H7.24997H7.22389C7.06742 10.9932 6.91094 10.9932 6.72839 10.9932C5.99818 10.9932 5.26796 11.15 4.58991 11.4376C4.74638 11.0716 4.8507 10.7317 4.92894 10.3396V10.3135V10.2873V10.2612V10.2351V10.2089V10.1828V10.1566V10.1305V10.1043V10.0782V10.0521V10.0259V9.99977V9.97363V9.94749V9.92135V9.89521V9.86906V9.84292V9.81678V9.79064C4.95501 9.63379 4.95501 9.47694 4.95501 9.29394C4.95501 8.56197 4.79854 7.83 4.51167 7.15031C5.18973 7.43787 5.91994 7.59472 6.65015 7.59472C6.80663 7.59472 6.9631 7.59472 7.11957 7.56858L7.82371 6.88889V6.49677C7.61508 6.54905 7.38036 6.60133 7.17173 6.62748C7.01526 6.65362 6.85878 6.65362 6.67623 6.65362C6.51976 6.65362 6.3372 6.65362 6.18073 6.62748C5.32012 6.52291 4.51167 6.20921 3.8597 5.68637C4.51167 5.18967 5.29404 4.84983 6.18073 4.74526V3.88258C5.05933 3.98715 4.04225 4.40542 3.2338 5.08511C2.94693 4.74526 2.71222 4.37928 2.50359 3.98715C3.65106 3.09833 5.08541 2.54935 6.65015 2.54935C7.56292 2.54935 8.42353 2.73234 9.2059 3.04604L11.0314 0.275008C11.2401 -0.0125527 11.6312 -0.0909782 11.9181 0.118157C12.0485 0.222724 12.1267 0.353433 12.1789 0.484142L12.2571 0.797844C12.5179 0.745561 12.8048 0.87627 12.9352 1.13769C12.9613 1.18997 12.9874 1.2684 12.9874 1.32068L13.3003 2.49706L13.4307 2.60163ZM8.55392 4.17014C8.13666 4.01329 7.69331 3.93487 7.24997 3.88258V4.74526C7.51076 4.7714 7.79763 4.82369 8.03234 4.90211L8.55392 4.17014ZM11.1357 8.01299C11.214 8.27441 11.2661 8.53583 11.2922 8.79725H12.1528C12.1007 8.35284 12.0224 7.90843 11.866 7.49016L11.1357 8.01299ZM6.10249 8.66654V9.97363H7.40644V9.00638L8.91903 7.49016L10.7185 7.54244L11.7095 6.86275L9.62316 6.83661L10.1187 6.36606L12.2832 6.47062L15.3866 4.37928L13.9784 4.03943L14.6043 3.56888L13.3785 3.22904L12.7787 3.80416L12.3354 3.69959L12.2571 3.25518L12.8048 2.68006L12.4658 1.45139L11.9964 2.07879L11.6573 0.667135L9.571 3.77801L9.67532 5.94779L9.2059 6.44448L9.17982 4.35314L8.50176 5.34653L8.55392 7.15031L7.04134 8.66654H6.10249ZM0 9.32009C0 7.75158 0.52158 6.31377 1.43435 5.16353C1.82553 5.34653 2.21672 5.5818 2.52967 5.8955C1.85161 6.7059 1.43435 7.72543 1.33003 8.84953H2.19064C2.29495 7.98685 2.6079 7.17645 3.12948 6.52291C3.62498 7.17645 3.96401 7.96071 4.06833 8.84953C4.09441 9.00638 4.09441 9.16323 4.09441 9.34623C4.09441 9.50308 4.09441 9.68607 4.06833 9.84292C3.96401 10.7056 3.65106 11.516 3.12948 12.1695C2.63398 11.516 2.29495 10.7317 2.19064 9.84292H1.33003C1.43435 10.967 1.85161 11.9866 2.52967 12.797C2.19064 13.0845 1.82553 13.3198 1.43435 13.5289C0.52158 12.3264 0 10.8886 0 9.32009Z" fill="#E6212D"/>
</svg>
