<svg width="256" height="256" viewBox="0 0 256 256" fill="none" xmlns="http://www.w3.org/2000/svg">
<path d="M128.272 4.53097L235.497 66.4239V190.233L128.272 252.137L21.0464 190.187V66.3789L128.272 4.53097ZM128.272 1.13274L18.1239 64.6911V191.875L128.272 255.479L238.42 191.875V64.6911L128.272 1.13274Z" fill="#426DF2"/>
<path d="M128.272 42.1833L202.852 85.2276V171.316L128.272 214.36L53.7034 171.316V85.2276L128.272 42.1833ZM128.272 19.0528L33.6765 73.6283V182.859L128.272 237.48L222.879 182.859V73.6283L128.272 19.0075V19.0528Z" fill="#426DF2"/>
<path d="M82.5204 129.416C80.6057 129.415 78.7447 128.783 77.2258 127.617C75.7069 126.452 74.6151 124.818 74.1195 122.968C73.6239 121.119 73.7523 119.158 74.4847 117.388C75.2172 115.619 76.5127 114.141 78.1706 113.184L108.993 95.3995C110.988 94.2884 113.34 94.0066 115.541 94.6147C117.743 95.2228 119.617 96.6721 120.759 98.6498C121.901 100.628 122.219 102.975 121.645 105.185C121.072 107.396 119.652 109.292 117.692 110.465L86.8588 128.249C85.5408 129.014 84.0441 129.416 82.5204 129.416Z" fill="#00BFFF"/>
<path d="M137.051 97.9708C135.132 97.9747 133.266 97.3443 131.744 96.178C130.221 95.0116 129.126 93.3747 128.63 91.5217C128.133 89.6687 128.264 87.7035 129 85.9321C129.736 84.1608 131.037 82.6825 132.701 81.7272L144.028 75.2253C145.019 74.6137 146.122 74.2073 147.273 74.03C148.424 73.8528 149.599 73.9084 150.727 74.1935C151.856 74.4785 152.917 74.9873 153.845 75.6896C154.774 76.3919 155.552 77.2736 156.134 78.2822C156.715 79.2908 157.089 80.406 157.231 81.5615C157.374 82.7171 157.283 83.8894 156.965 85.0093C156.646 86.1291 156.106 87.1737 155.376 88.0809C154.646 88.9881 153.742 89.7395 152.716 90.2908L141.389 96.8041C140.069 97.5637 138.574 97.9659 137.051 97.9708Z" fill="#00BFFF"/>
<path d="M95.3769 155.967C93.4612 155.97 91.5985 155.339 90.0777 154.174C88.5569 153.009 87.4631 151.375 86.9661 149.525C86.4691 147.675 86.5965 145.713 87.3288 143.943C88.061 142.173 89.3571 140.694 91.0158 139.735L91.3103 139.565C92.3002 138.957 93.4019 138.552 94.5506 138.376C95.6992 138.201 96.8715 138.257 97.9982 138.541C99.1248 138.826 100.183 139.333 101.11 140.034C102.038 140.734 102.815 141.613 103.397 142.619C103.979 143.625 104.354 144.737 104.499 145.89C104.644 147.043 104.557 148.213 104.242 149.332C103.927 150.45 103.392 151.495 102.667 152.403C101.942 153.311 101.042 154.065 100.021 154.62L99.7266 154.789C98.4059 155.559 96.9053 155.965 95.3769 155.967Z" fill="#00BFFF"/>
<path d="M119.085 142.533C117.175 142.532 115.318 141.901 113.801 140.74C112.285 139.578 111.193 137.949 110.694 136.105C110.196 134.261 110.318 132.304 111.042 130.536C111.766 128.768 113.052 127.288 114.701 126.324L156.805 101.788C157.793 101.188 158.891 100.79 160.035 100.618C161.178 100.447 162.344 100.505 163.465 100.789C164.586 101.074 165.638 101.579 166.562 102.275C167.485 102.971 168.26 103.844 168.842 104.843C169.424 105.842 169.801 106.947 169.951 108.093C170.101 109.24 170.021 110.405 169.716 111.52C169.41 112.635 168.885 113.678 168.172 114.588C167.459 115.498 166.571 116.257 165.562 116.82L123.457 141.344C122.131 142.121 120.622 142.531 119.085 142.533Z" fill="#00BFFF"/>
<path d="M108.268 182.519C106.35 182.523 104.484 181.893 102.961 180.726C101.438 179.56 100.343 177.923 99.847 176.07C99.3508 174.217 99.481 172.252 100.217 170.48C100.954 168.709 102.255 167.231 103.918 166.276L169.731 128.329C171.723 127.258 174.055 127.005 176.231 127.624C178.406 128.243 180.255 129.686 181.386 131.645C182.516 133.605 182.838 135.928 182.284 138.121C181.73 140.315 180.344 142.206 178.419 143.394L112.572 181.352C111.262 182.106 109.779 182.508 108.268 182.519Z" fill="#426DF2"/>
</svg>
