<?xml version="1.0" standalone="no"?><!DOCTYPE svg PUBLIC "-//W3C//DTD SVG 1.1//EN" "http://www.w3.org/Graphics/SVG/1.1/DTD/svg11.dtd"><svg t="1754374129011" class="icon" viewBox="0 0 1024 1024" version="1.1" xmlns="http://www.w3.org/2000/svg" p-id="21687" width="16" height="16" xmlns:xlink="http://www.w3.org/1999/xlink"><path d="M266.88 341.333333a298.666667 298.666667 0 1 1-41.173333 256H137.514667A384 384 0 1 0 213.333333 270.634667V149.333333a21.333333 21.333333 0 0 0-21.333333-21.333333h-42.666667a21.333333 21.333333 0 0 0-21.333333 21.333333V384a42.666667 42.666667 0 0 0 42.666667 42.666667h234.666666a21.333333 21.333333 0 0 0 21.333334-21.333334v-42.666666a21.333333 21.333333 0 0 0-21.333334-21.333334H266.88z" p-id="21688"></path></svg>