<svg width="24" height="18" viewBox="0 0 24 18" fill="none" xmlns="http://www.w3.org/2000/svg">
<path d="M14.8379 16.9922C14.9165 17.0708 14.9704 17.1712 14.9922 17.2803C15.0139 17.3894 15.0025 17.5027 14.96 17.6055C14.9174 17.7083 14.8455 17.7966 14.7529 17.8584C14.6604 17.9202 14.5517 17.9531 14.4404 17.9531H8.92383C8.8126 17.9531 8.70381 17.9202 8.61133 17.8584C8.51878 17.7966 8.44689 17.7083 8.4043 17.6055C8.36175 17.5027 8.35037 17.3894 8.37207 17.2803C8.39382 17.1712 8.44773 17.0708 8.52637 16.9922L9.87012 15.6484H13.4951L14.8379 16.9922ZM18.1836 0C19.2755 0.00130758 20.3227 0.435944 21.0947 1.20801C21.8667 1.98012 22.3005 3.02731 22.3018 4.11914V11.0908C22.3004 12.1824 21.8665 13.229 21.0947 14.001C20.3227 14.7731 19.2755 15.2077 18.1836 15.209H5.81738C4.7254 15.2077 3.67839 14.7731 2.90625 14.001C2.13439 13.229 1.69959 12.1825 1.69824 11.0908V4.11914C1.69947 3.02724 2.13421 1.98013 2.90625 1.20801C3.67839 0.435866 4.72541 0.00123215 5.81738 0H18.1836ZM6.21387 2.91602C6.0171 2.91602 5.82761 2.99466 5.68848 3.13379C5.54952 3.27288 5.47169 3.46158 5.47168 3.6582V11.0488C5.47169 11.2454 5.54953 11.4341 5.68848 11.5732C5.82761 11.7124 6.0171 11.791 6.21387 11.791H7.12598V13.6074L9.14941 12.4717C9.94529 12.0251 10.8432 11.791 11.7559 11.791H17.7871C17.9838 11.791 18.1724 11.7123 18.3115 11.5732C18.4506 11.4341 18.5293 11.2456 18.5293 11.0488V3.6582C18.5293 3.46146 18.4506 3.27291 18.3115 3.13379C18.1724 2.99468 17.9839 2.91602 17.7871 2.91602H6.21387ZM1.25879 10.1338H0.543945C0.472634 10.1337 0.401823 10.1201 0.335938 10.0928C0.269982 10.0654 0.209666 10.0251 0.15918 9.97461C0.108794 9.92415 0.0692811 9.86374 0.0419922 9.79785C0.0147087 9.7319 -1.60252e-06 9.66122 0 9.58984V5.65137C0 5.50721 0.0573281 5.36861 0.15918 5.2666C0.261115 5.16466 0.399796 5.10753 0.543945 5.10742H1.25879V10.1338ZM23.4561 5.10742C23.6003 5.10743 23.7388 5.1646 23.8408 5.2666C23.9429 5.36863 24 5.50707 24 5.65137V9.58984C24 9.66117 23.9862 9.73193 23.959 9.79785C23.9316 9.86386 23.8913 9.92409 23.8408 9.97461C23.7903 10.0251 23.7301 10.0654 23.6641 10.0928C23.5982 10.12 23.5273 10.1338 23.4561 10.1338H22.7412V5.10742H23.4561ZM9.45215 5.77246C9.58575 5.77245 9.71836 5.79851 9.8418 5.84961C9.9652 5.90071 10.0774 5.97589 10.1719 6.07031C10.2663 6.16474 10.3414 6.27703 10.3926 6.40039C10.4437 6.52381 10.4697 6.65645 10.4697 6.79004V7.51953C10.4697 7.78942 10.3627 8.04842 10.1719 8.23926C9.98103 8.4301 9.72204 8.53711 9.45215 8.53711C9.18234 8.53705 8.92321 8.43005 8.73242 8.23926C8.54172 8.04844 8.43457 7.78932 8.43457 7.51953V6.79004C8.4346 6.52021 8.54163 6.26112 8.73242 6.07031C8.92321 5.87952 9.18233 5.77251 9.45215 5.77246ZM14.7598 5.77246C14.8934 5.77246 15.026 5.79849 15.1494 5.84961C15.2728 5.90074 15.385 5.97586 15.4795 6.07031C15.5739 6.16476 15.6491 6.277 15.7002 6.40039C15.7513 6.52381 15.7773 6.65645 15.7773 6.79004V7.51953C15.7773 7.78936 15.6702 8.04843 15.4795 8.23926C15.2887 8.43009 15.0296 8.53709 14.7598 8.53711C14.4899 8.53711 14.2309 8.4301 14.04 8.23926C13.8492 8.04842 13.7422 7.78938 13.7422 7.51953V6.79004C13.7422 6.5202 13.8492 6.26112 14.04 6.07031C14.2309 5.87955 14.4899 5.77246 14.7598 5.77246Z" fill="url(#paint0_linear_10137_9866)"/>
<defs>
<linearGradient id="paint0_linear_10137_9866" x1="12.0003" y1="9.63688e-05" x2="12.0003" y2="15.209" gradientUnits="userSpaceOnUse">
<stop stop-color="#3370FF"/>
<stop offset="1" stop-color="#7F3BF5"/>
</linearGradient>
</defs>
</svg>
