<svg width="32" height="32" viewBox="0 0 32 32" fill="none" xmlns="http://www.w3.org/2000/svg">
<circle cx="16" cy="16" r="16" fill="#E5F9EF"/>
<path fill-rule="evenodd" clip-rule="evenodd" d="M2.31104 15.9999C2.31104 23.5609 8.43895 29.6888 15.9999 29.6888C23.5609 29.6888 29.6888 23.5609 29.6888 15.9999C29.6888 8.43895 23.5609 2.31104 15.9999 2.31104C8.43895 2.31104 2.31104 8.43895 2.31104 15.9999Z" fill="#00C261"/>
<path d="M22.716 13.2866C23.0501 12.9524 23.0501 12.4107 22.716 12.0766L22.1111 11.4717C21.7769 11.1375 21.2352 11.1375 20.9011 11.4717L14.0997 18.2724L11.576 15.7494C11.2419 15.4153 10.7002 15.4153 10.3661 15.7494L9.76108 16.3544C9.42697 16.6885 9.42697 17.2302 9.76108 17.5643L13.3909 21.1942C13.6278 21.4311 13.9691 21.5 14.2671 21.4015C14.4791 21.3964 14.6896 21.313 14.8514 21.1512L22.716 13.2866Z" fill="white"/>
</svg>
